<svg width="1454" height="696" viewBox="0 0 1454 696" fill="none" xmlns="http://www.w3.org/2000/svg">
<path d="M716.935 318.79C716.935 323.628 715.143 329.117 711.753 335.05C708.366 340.98 703.401 347.322 697.101 353.857C684.5 366.928 666.596 380.73 645.408 393.502C603.03 419.048 547.597 440.424 495.359 443.59C455.741 445.991 419.344 442.817 392.08 432.34C364.841 421.872 346.783 404.149 343.63 377.444C343.637 347.796 354.062 320.203 378.192 300.01C402.341 279.801 440.276 266.953 495.389 266.953C506.271 266.953 517.162 266.883 527.955 266.813C571.929 266.53 614.275 266.257 647.733 270.78C668.569 273.597 685.892 278.266 697.994 285.906C710.064 293.527 716.935 304.094 716.935 318.79Z" stroke="#35588E"/>
<path d="M875.541 317.155C874.917 323.395 871.904 331.152 866.637 339.971C861.374 348.782 853.88 358.618 844.336 369.008C825.248 389.788 797.984 412.758 764.035 434.15C696.138 476.932 601.543 513.375 492.217 513.375C431.954 513.375 378.116 508.614 339.357 492.398C319.987 484.294 304.408 473.34 293.671 458.712C282.938 444.089 277.016 425.758 277.016 402.852C277.016 348.993 289.606 303.17 327.079 270.791C364.573 238.396 427.074 219.372 527.11 219.372C627.169 219.372 715.939 228.094 778.886 244.732C810.363 253.052 835.344 263.341 852.048 275.481C868.748 287.617 877.102 301.541 875.541 317.155Z" stroke="#35588E"/>
<path d="M1148.04 275.916C1147.07 285.708 1141.78 297.769 1132.54 311.403C1123.31 325.027 1110.16 340.18 1093.53 356.148C1060.26 388.083 1013.1 423.25 955.566 455.945C840.503 521.337 684.022 576.815 514.42 576.815C418.149 576.815 328.616 570.468 265.938 547.899C234.604 536.617 210.032 521.297 194.674 500.737C179.329 480.194 173.142 454.366 178.673 421.967C193.316 336.201 207.575 268.177 262.849 218.374C318.136 168.559 414.553 136.894 593.759 124.207C741.217 113.767 882.396 126.249 985.425 154.116C1036.94 168.051 1078.89 185.824 1107.31 206.475C1135.74 227.131 1150.55 250.592 1148.04 275.916Z" stroke="#35588E"/>
<path d="M1322.8 263.231C1322.47 266.697 1320.75 271.322 1317.65 276.969C1314.55 282.605 1310.11 289.216 1304.39 296.644C1292.95 311.501 1276.42 329.594 1255.42 349.641C1213.42 389.734 1153.55 437.616 1080.72 483.015C935.051 573.818 737.613 654.653 527.735 643.429C438.765 638.67 369.095 634.232 314.628 627.595C260.153 620.956 220.934 612.124 192.841 598.602C164.776 585.093 147.819 566.906 137.854 541.516C127.875 516.093 124.893 483.419 124.868 440.915C124.813 348.024 135.1 252.632 202.816 180.443C270.531 108.253 395.789 59.1472 625.982 59.1462C771.601 63.1289 949.029 81.278 1088.47 114.926C1158.2 131.751 1218.39 152.444 1260.35 177.157C1302.34 201.887 1325.91 230.534 1322.8 263.231Z" stroke="#35588E"/>
<path d="M1452.86 231.513L1452.86 231.536V231.56C1452.86 235.369 1451.67 240.003 1449.33 245.388C1446.99 250.768 1443.5 256.869 1438.94 263.604C1429.82 277.074 1416.41 293.043 1399.27 310.803C1365 346.319 1315.85 388.956 1256.39 433.017C1137.47 521.14 977.325 614.927 812.441 668.831C730.063 695.763 604.425 696.8 495.397 694.183C396.273 691.804 315.206 687.443 249.509 679.369C183.808 671.295 133.512 659.511 95.9141 642.302C58.3288 625.099 33.4493 602.483 18.5469 572.737C3.63938 542.981 -1.31212 506.036 1.06926 460.124C22.376 274.564 75.4667 159.733 185.324 91.2408C295.24 22.712 462.08 0.5 711.092 0.5C809.387 0.5 998.702 18.3866 1161.54 56.2686C1242.97 75.2103 1317.73 99.1432 1371.19 128.319C1424.69 157.521 1456.62 191.848 1452.86 231.513Z" stroke="#35588E"/>
</svg>
